# xmcd
#
# Track frame offsets: 
#        150
#        11986
#        24579
#        42211
#        54381
#        74608
#        92327
#        110238
#        130489
#        146439
#
# Disc length: 2334 seconds
#
# Revision: 0
# Processed by: cddbd v1.5.2PL0 Copyright (c) Steve Scherf et al.
# Submitted via: ExactAudioCopy v0.95b4
#
DISCID=8e091c0a
DTITLE=Various Artist - The Red Room Vol. 2 [CD2 R&B Soul)
DYEAR=2004
DGENRE=R&B
TTITLE0=Get Ready- The Temptations
TTITLE1=I Got You ( IFeel Good)- James Brown
TTITLE2=Where Are We Going- Marvin Gaye
TTITLE3=I Can't Help Myself (Sugar Pie Honey Bunch)- The Four Tops
TTITLE4=Can't Get Enough of Your Love, Babe- Barry White
TTITLE5=I'll Be There- Jackson 5
TTITLE6=Bad Girls- Donna Summer
TTITLE7=Just Once- Quincy Jones feat. James Ingram
TTITLE8=Someday We'll Be Together- The Supremes
TTITLE9=All Night Long (All Night)- Lionel Richie
EXTD=
EXTT0=
EXTT1=
EXTT2=
EXTT3=
EXTT4=
EXTT5=
EXTT6=
EXTT7=
EXTT8=
EXTT9=
PLAYORDER=
